<?xml version="1.0" encoding="iso-8859-1"?>
<!-- Uploaded to: SVG Repo, www.svgrepo.com, Generator: SVG Repo Mixer Tools -->
<svg height="800px" width="800px" version="1.1" id="Layer_1" xmlns="http://www.w3.org/2000/svg" xmlns:xlink="http://www.w3.org/1999/xlink" 
	 viewBox="0 0 512 512" xml:space="preserve">
<circle style="fill:#88C5CC;" cx="256" cy="256" r="256"/>
<ellipse style="fill:#E6E6E6;" cx="351.8" cy="260" rx="48" ry="40"/>
<path style="fill:#CCCCCC;" d="M327.408,294.4c0.244-0.756,0.412-1.56,0.412-2.4v-64c0-0.84-0.168-1.632-0.412-2.4
	c-14.104,6.96-23.588,19.748-23.588,34.4C303.82,274.652,313.296,287.428,327.408,294.4z"/>
<path style="fill:#E6E6E6;" d="M306.252,265.752c-6.216-6.5-13.608-10.752-22.204-12.936c-8.552-2.168-17.928-2.208-27.356-1.044
	c-18.932,2.416-37.868,9-56.712,15.7c-18.916,6.712-37.856,14.192-58.124,18.752c-10.116,2.184-20.7,3.668-31.532,2.48
	c-5.388-0.592-10.816-1.94-15.868-4.284c-5.068-2.3-9.656-5.632-13.48-9.58c-1.552-1.584-1.524-4.112,0.056-5.664
	c1.56-1.528,4.06-1.508,5.608,0c6.568,6.44,15.288,9.908,24.56,10.564c9.284,0.732,18.916-0.876,28.356-3.252
	c18.948-4.916,37.404-12.852,56.192-20.252c18.808-7.36,37.968-14.904,59-18.336c10.48-1.624,21.588-2.096,32.724,0.304
	c11.064,2.296,21.956,8.192,29.912,16.056l0.28,0.276c3.14,3.104,3.168,8.172,0.064,11.316c-3.1,3.14-8.172,3.168-11.312,0.06
	C306.36,265.864,306.292,265.792,306.252,265.752z"/>
<path style="fill:#406A80;" d="M323.812,292c0,4.4-3.6,8-8,8h-8c-4.4,0-8-3.6-8-8v-64c0-4.4,3.6-8,8-8h8c4.4,0,8,3.6,8,8V292z"/>
<path style="fill:#395F73;" d="M315.812,220h-4c4.4,0,8,3.6,8,8v64c0,4.4-3.6,8-8,8h4c4.4,0,8-3.6,8-8v-64
	C323.812,223.6,320.212,220,315.812,220z"/>
<ellipse style="fill:#E6E6E6;" cx="183.812" cy="148" rx="48" ry="40"/>
<path style="fill:#CCCCCC;" d="M159.404,182.4c0.244-0.756,0.412-1.56,0.412-2.4v-64c0-0.84-0.168-1.632-0.412-2.4
	c-14.104,6.968-23.588,19.748-23.588,34.4S145.296,175.428,159.404,182.4z"/>
<path style="fill:#E6E6E6;" d="M149.376,142.252c-7.94-7.86-18.844-13.752-29.908-16.052c-11.128-2.412-22.248-1.932-32.724-0.3
	c-21.032,3.428-40.192,10.972-59,18.336c-0.88,0.344-1.748,0.688-2.616,1.04c-2.36,4.916-4.512,9.936-6.568,15.028
	c4.484-1.62,8.952-3.252,13.416-4.832c18.844-6.704,37.772-13.284,56.712-15.704c9.416-1.164,18.804-1.12,27.352,1.048
	c8.588,2.192,15.992,6.436,22.208,12.936c0.044,0.052,0.104,0.112,0.156,0.156c3.136,3.108,8.208,3.084,11.308-0.06
	c3.108-3.144,3.084-8.212-0.06-11.316L149.376,142.252z"/>
<path style="fill:#406A80;" d="M155.812,180c0,4.4-3.6,8-8,8h-8c-4.4,0-8-3.6-8-8v-64c0-4.4,3.6-8,8-8h8c4.4,0,8,3.6,8,8V180z"/>
<path style="fill:#395F73;" d="M147.812,108h-4c4.4,0,8,3.6,8,8v64c0,4.4-3.6,8-8,8h4c4.4,0,8-3.6,8-8v-64
	C155.812,111.6,152.212,108,147.812,108z"/>
<ellipse style="fill:#E6E6E6;" cx="159.812" cy="372" rx="48" ry="40"/>
<path style="fill:#CCCCCC;" d="M135.404,406.4c0.244-0.756,0.412-1.56,0.412-2.4v-64c0-0.84-0.168-1.632-0.412-2.4
	c-14.104,6.96-23.588,19.748-23.588,34.4S121.296,399.428,135.404,406.4z"/>
<path style="fill:#E6E6E6;" d="M125.376,366.252c-7.94-7.86-18.844-13.752-29.908-16.052c-11.128-2.412-22.248-1.928-32.724-0.304
	c-14.084,2.3-27.32,6.456-40.192,11.152c1.752,3.9,3.6,7.736,5.544,11.508c12.184-3.928,24.388-7.24,36.592-8.784
	c9.416-1.164,18.804-1.124,27.352,1.044c8.588,2.192,15.992,6.436,22.208,12.936c0.044,0.052,0.104,0.112,0.156,0.156
	c3.136,3.108,8.208,3.084,11.308-0.06c3.108-3.144,3.084-8.212-0.06-11.316L125.376,366.252z"/>
<path style="fill:#406A80;" d="M131.812,404c0,4.4-3.6,8-8,8h-8c-4.4,0-8-3.6-8-8v-64c0-4.4,3.6-8,8-8h8c4.4,0,8,3.6,8,8V404z"/>
<path style="fill:#395F73;" d="M123.812,332h-4c4.4,0,8,3.6,8,8v64c0,4.4-3.6,8-8,8h4c4.4,0,8-3.6,8-8v-64
	C131.812,335.6,128.212,332,123.812,332z"/>
<ellipse style="fill:#E6E6E6;" cx="335.812" cy="448" rx="48" ry="40"/>
<path style="fill:#CCCCCC;" d="M311.408,482.4c0.244-0.756,0.412-1.56,0.412-2.4v-64c0-0.84-0.168-1.632-0.412-2.4
	c-14.104,6.96-23.588,19.748-23.588,34.4S297.296,475.428,311.408,482.4z"/>
<path style="fill:#E6E6E6;" d="M301.376,442.252c-7.936-7.86-18.844-13.752-29.908-16.052c-11.128-2.412-22.248-1.928-32.724-0.304
	c-21.032,3.432-40.192,10.976-59,18.336c-18.788,7.4-37.244,15.332-56.192,20.252c-4.144,1.048-8.336,1.896-12.512,2.508
	c3.924,2.704,7.912,5.328,11.984,7.812c0.944-0.188,1.896-0.376,2.828-0.584c20.268-4.564,39.216-12.044,58.124-18.752
	c18.844-6.7,37.772-13.284,56.712-15.7c9.416-1.164,18.804-1.124,27.352,1.044c8.588,2.192,15.992,6.444,22.212,12.944
	c0.044,0.044,0.1,0.104,0.156,0.148c3.132,3.108,8.204,3.084,11.304-0.06c3.108-3.144,3.084-8.212-0.06-11.316L301.376,442.252z"/>
<path style="fill:#406A80;" d="M307.812,480c0,4.4-3.6,8-8,8h-8c-4.4,0-8-3.6-8-8v-64c0-4.4,3.6-8,8-8h8c4.4,0,8,3.6,8,8V480z"/>
<path style="fill:#395F73;" d="M299.812,408h-4c4.4,0,8,3.6,8,8v64c0,4.4-3.6,8-8,8h4c4.4,0,8-3.6,8-8v-64
	C307.812,411.6,304.212,408,299.812,408z"/>
<ellipse style="fill:#E6E6E6;" cx="295.812" cy="60" rx="48" ry="40"/>
<path style="fill:#CCCCCC;" d="M271.408,94.4c0.244-0.756,0.412-1.56,0.412-2.4V28c0-0.84-0.168-1.632-0.412-2.4
	C257.304,32.568,247.82,45.348,247.82,60S257.296,87.428,271.408,94.4z"/>
<path style="fill:#E6E6E6;" d="M261.376,54.252c-7.94-7.86-18.844-13.752-29.908-16.052c-11.128-2.412-22.248-1.932-32.724-0.3
	c-21.032,3.428-40.192,10.972-59,18.336c-18.788,7.396-37.244,15.328-56.192,20.248c-4.096,1.036-8.24,1.872-12.368,2.484
	c-3.164,3.292-6.236,6.684-9.22,10.144c8.168,0.032,16.16-1.228,23.888-2.892c20.268-4.568,39.216-12.048,58.124-18.752
	c18.844-6.704,37.772-13.284,56.712-15.704c9.416-1.164,18.804-1.12,27.352,1.048c8.588,2.192,15.992,6.436,22.208,12.936
	c0.044,0.052,0.104,0.112,0.156,0.156c3.136,3.108,8.204,3.084,11.308-0.06c3.108-3.144,3.084-8.212-0.06-11.316L261.376,54.252z"/>
<path style="fill:#406A80;" d="M267.812,92c0,4.4-3.6,8-8,8h-8c-4.4,0-8-3.6-8-8V28c0-4.4,3.6-8,8-8h8c4.4,0,8,3.6,8,8V92z"/>
<path style="fill:#395F73;" d="M259.812,20h-4c4.4,0,8,3.6,8,8v64c0,4.4-3.6,8-8,8h4c4.4,0,8-3.6,8-8V28
	C267.812,23.6,264.212,20,259.812,20z"/>
</svg>